<svg xmlns="http://www.w3.org/2000/svg" width="34.594" height="8.94" viewBox="0 0 34.594 8.94">
  <metadata><?xpacket begin="﻿" id="W5M0MpCehiHzreSzNTczkc9d"?>
<x:xmpmeta xmlns:x="adobe:ns:meta/" x:xmptk="Adobe XMP Core 5.6-c138 79.159824, 2016/09/14-01:09:01        ">
   <rdf:RDF xmlns:rdf="http://www.w3.org/1999/02/22-rdf-syntax-ns#">
      <rdf:Description rdf:about=""/>
   </rdf:RDF>
</x:xmpmeta>
                                                                                                    
                                                                                                    
                                                                                                    
                                                                                                    
                                                                                                    
                                                                                                    
                                                                                                    
                                                                                                    
                                                                                                    
                                                                                                    
                                                                                                    
                                                                                                    
                                                                                                    
                                                                                                    
                                                                                                    
                                                                                                    
                                                                                                    
                                                                                                    
                                                                                                    
                                                                                                    
                           
<?xpacket end="w"?></metadata>
<defs>
    <style>
      .cls-1 {
        fill: #fff;
        fill-rule: evenodd;
      }
    </style>
  </defs>
  <path id="fireball" class="cls-1" d="M557.264,2123.44a4.709,4.709,0,0,0-4.569-1.21,23.4,23.4,0,0,1-4.37.59,8.607,8.607,0,0,1-2.24-.38,2.915,2.915,0,0,0,1.45,1.14c0.547,0.2,1.314.52,0.975,1.05-0.383.6-.973,0.09-1.132-0.04a14.069,14.069,0,0,0-1.807-1.32,7.065,7.065,0,0,0-4.141-.51,4.5,4.5,0,0,1,1.811.83,7.521,7.521,0,0,0-4,.28,26.844,26.844,0,0,1,5.248.64c0.431,0.2.218,0.35-.2,0.44a10.008,10.008,0,0,1-4.075-.04c-1.688-.49-3.111-1.9-5.522-1.52,2.129,0.45,3.261,2.46,5.583,2.93a7.4,7.4,0,0,0,4.41-.58,0.89,0.89,0,0,1,1.118.41,0.966,0.966,0,0,1-.974.93c-0.474.09-.63,0.1-1.481,0.19a11.033,11.033,0,0,1-4.185-.35,15.045,15.045,0,0,1-4.374-2.39,6.622,6.622,0,0,0-2.121-.65,4.709,4.709,0,0,1,1.615,1.37,8.266,8.266,0,0,0-4.612-.23,33.839,33.839,0,0,0-5.679,1.71,10.031,10.031,0,0,0,3.582.04,11.269,11.269,0,0,1,6.268.95c3.7,1.33,4.977.14,5.228,0.53,0.18,0.28-1.007.77-1.332,0.83a8.06,8.06,0,0,1-4.029-.36,5.372,5.372,0,0,0,3.887,1.26,15.061,15.061,0,0,0,4.892-.95,23.6,23.6,0,0,1,3.124-1.16c0.328-.09,1.481-0.4,1.722-0.08,0.136,0.18-.087.34-0.453,0.49-0.286.12-.659,0.25-1.019,0.39a14.768,14.768,0,0,0-2.842,1.29,32.676,32.676,0,0,1,4.277-.33,13.409,13.409,0,0,1,5.151,1.04,4.227,4.227,0,0,0,4.483-.65,4.162,4.162,0,0,0,1.659-3.4A4.5,4.5,0,0,0,557.264,2123.44Zm-3,6.76a3.61,3.61,0,1,1,3.594-3.61A3.6,3.6,0,0,1,554.269,2130.2Zm0-6.46a2.85,2.85,0,1,0,2.84,2.85A2.847,2.847,0,0,0,554.269,2123.74Zm1.32,4.74a2.379,2.379,0,0,0-1.413-3.81,3.386,3.386,0,0,1,.343-0.41A2.385,2.385,0,0,1,555.589,2128.48Z" transform="translate(-524 -2122.09)"/>
</svg>
