<svg xmlns="http://www.w3.org/2000/svg" width="12" height="11" viewBox="0 0 12 11">
  <metadata><?xpacket begin="﻿" id="W5M0MpCehiHzreSzNTczkc9d"?>
<x:xmpmeta xmlns:x="adobe:ns:meta/" x:xmptk="Adobe XMP Core 5.6-c138 79.159824, 2016/09/14-01:09:01        ">
   <rdf:RDF xmlns:rdf="http://www.w3.org/1999/02/22-rdf-syntax-ns#">
      <rdf:Description rdf:about=""/>
   </rdf:RDF>
</x:xmpmeta>
                                                                                                    
                                                                                                    
                                                                                                    
                                                                                                    
                                                                                                    
                                                                                                    
                                                                                                    
                                                                                                    
                                                                                                    
                                                                                                    
                                                                                                    
                                                                                                    
                                                                                                    
                                                                                                    
                                                                                                    
                                                                                                    
                                                                                                    
                                                                                                    
                                                                                                    
                                                                                                    
                           
<?xpacket end="w"?></metadata>
<defs>
    <style>
      .cls-1 {
        fill: #98aaaf;
        fill-rule: evenodd;
      }
    </style>
  </defs>
  <path id="icon-xs-star" class="cls-1" d="M1097,983.313a0.7,0.7,0,0,0-.02-0.145,0.486,0.486,0,0,0-.46-0.32h-3.87l-1.19-3.528A0.486,0.486,0,0,0,1091,979h0a0.486,0.486,0,0,0-.46.32l-1.19,3.528h-3.87a0.486,0.486,0,0,0-.46.32,0.7,0.7,0,0,0-.02.145,0.45,0.45,0,0,0,.2.373l3.13,2.18-1.2,3.528a0.461,0.461,0,0,0,.18.518,0.489,0.489,0,0,0,.56,0l3.13-2.18,3.13,2.18a0.489,0.489,0,0,0,.56,0,0.461,0.461,0,0,0,.18-0.518l-1.2-3.528,3.13-2.18A0.45,0.45,0,0,0,1097,983.313Z" transform="translate(-1085 -979)"/>
</svg>
