<svg xmlns="http://www.w3.org/2000/svg" width="176.375" height="17.625" viewBox="0 0 176.375 17.625">
  <metadata><?xpacket begin="﻿" id="W5M0MpCehiHzreSzNTczkc9d"?>
<x:xmpmeta xmlns:x="adobe:ns:meta/" x:xmptk="Adobe XMP Core 5.6-c138 79.159824, 2016/09/14-01:09:01        ">
   <rdf:RDF xmlns:rdf="http://www.w3.org/1999/02/22-rdf-syntax-ns#">
      <rdf:Description rdf:about=""/>
   </rdf:RDF>
</x:xmpmeta>
                                                                                                    
                                                                                                    
                                                                                                    
                                                                                                    
                                                                                                    
                                                                                                    
                                                                                                    
                                                                                                    
                                                                                                    
                                                                                                    
                                                                                                    
                                                                                                    
                                                                                                    
                                                                                                    
                                                                                                    
                                                                                                    
                                                                                                    
                                                                                                    
                                                                                                    
                                                                                                    
                           
<?xpacket end="w"?></metadata>
<defs>
    <style>
      .cls-1 {
        fill: #fff;
        fill-rule: evenodd;
      }
    </style>
  </defs>
  <path id="SEMrush_Logo_small" data-name="SEMrush Logo small" class="cls-1" d="M835.114,18.547h-15.78l-4.062,11.274h3.079l3.082-8.552h3.849a0.525,0.525,0,0,1,.489.777l-2.8,7.775h3.08l2.8-7.775a1.219,1.219,0,0,1,1.05-.777h3.079a0.526,0.526,0,0,1,.49.777l-2.8,7.775h3.079l3.222-8.941C837.432,19.591,836.6,18.547,835.114,18.547Zm21.446,7.775a1.217,1.217,0,0,1-1.05.777h-3.849a0.525,0.525,0,0,1-.489-0.777l2.8-7.775H850.9l-3.222,8.942c-0.465,1.288.365,2.332,1.853,2.332h6.928a2.747,2.747,0,0,0,2.485-1.555l3.5-9.719h-3.079Zm-51.189,0,0.28-.777h9.237l0.981-2.721,0.7-1.944c0.464-1.288-.365-2.333-1.853-2.333h-7.7a2.747,2.747,0,0,0-2.485,1.555h0l-2.661,7.387c-0.464,1.288.365,2.332,1.853,2.332h9.622l0.981-2.721h-8.467A0.525,0.525,0,0,1,805.371,26.322Zm1.541-4.276a1.22,1.22,0,0,1,1.05-.778h4.619a0.525,0.525,0,0,1,.489.777l-0.28.778h-6.158Zm79.392-3.5-1.541,4.276h-5.388l1.54-4.276h-3.079l-4.062,11.274h3.079l1.541-4.276h5.388l-1.541,4.276h3.079l4.063-11.274H886.3ZM839.173,20.1l-3.5,9.719h3.079l2.8-7.775a1.22,1.22,0,0,1,1.05-.778h5.389l0.98-2.721h-7.313A2.746,2.746,0,0,0,839.173,20.1Zm-48.111,0h0l-1.12,3.11c-0.464,1.288.366,2.332,1.854,2.332h5a0.526,0.526,0,0,1,.49.777h0a1.219,1.219,0,0,1-1.05.777h-7.7l-0.981,2.721h9.622a2.746,2.746,0,0,0,2.485-1.555l1.121-3.11c0.464-1.288-.366-2.333-1.854-2.333h-5a0.525,0.525,0,0,1-.49-0.777h0a1.219,1.219,0,0,1,1.05-.778h7.7l0.98-2.721h-9.622A2.747,2.747,0,0,0,791.062,20.1Zm72.743,0h0l-1.12,3.11c-0.465,1.288.365,2.332,1.853,2.332h5a0.525,0.525,0,0,1,.489.777h0a1.219,1.219,0,0,1-1.05.777h-7.7L860.3,29.821h9.622a2.747,2.747,0,0,0,2.485-1.555l1.12-3.11c0.465-1.288-.365-2.333-1.853-2.333h-5a0.525,0.525,0,0,1-.489-0.777h0a1.219,1.219,0,0,1,1.05-.778h7.7l0.981-2.721H866.29A2.747,2.747,0,0,0,863.805,20.1ZM778.4,18c-2.187-2.311-5.181-3.092-8.983-2.379a46.838,46.838,0,0,1-8.593,1.166,17.281,17.281,0,0,1-4.4-.767,5.665,5.665,0,0,0,2.85,2.259c1.077,0.406,2.585,1.026,1.919,2.073-0.754,1.184-1.914.19-2.228-.067a26.205,26.205,0,0,0-3.551-2.613c-2.15-1.277-5.14-1.3-8.143-1a8.688,8.688,0,0,1,3.561,1.643s-4.764-.98-7.855.546c4.5,0.176,9.472.894,10.319,1.273s0.429,0.684-.387.86a19.715,19.715,0,0,1-8.014-.081c-3.318-.957-6.117-3.754-10.857-3,4.187,0.889,6.413,4.848,10.979,5.788s7.632-.9,8.67-1.149a1.749,1.749,0,0,1,2.2.813c0.24,0.715-.673,1.612-1.914,1.839-0.934.171-1.239,0.2-2.913,0.369a21.334,21.334,0,0,1-8.228-.684c-4.266-1.142-7.2-3.966-8.6-4.72a12.744,12.744,0,0,0-4.172-1.291,9.332,9.332,0,0,1,3.176,2.708,16.094,16.094,0,0,0-9.067-.447A64.678,64.678,0,0,0,713,24.51c2.506,0.752,5.672.181,7.043,0.068,7.472-.616,9.973,1.046,12.325,1.892,7.276,2.619,9.785.262,10.278,1.035,0.355,0.555-1.979,1.527-2.618,1.648-3.279.618-4.872,0.03-7.922-.71a10.428,10.428,0,0,0,7.643,2.481,29.112,29.112,0,0,0,9.617-1.879,49.957,49.957,0,0,1,6.144-2.283c0.645-.177,2.912-0.787,3.386-0.154,0.266,0.355-.171.659-0.892,0.967-0.561.241-1.3,0.485-2,.76-1.614.628-4.627,1.76-5.589,2.554a63.492,63.492,0,0,1,8.411-.657A26.168,26.168,0,0,1,768.95,32.3a8.309,8.309,0,0,0,8.815-1.291,8.251,8.251,0,0,0,3.263-6.728A8.953,8.953,0,0,0,778.4,18Zm-5.888,13.371a7.137,7.137,0,1,1,7.065-7.136A7.1,7.1,0,0,1,772.516,31.369Zm0-12.776a5.64,5.64,0,1,0,5.584,5.64A5.612,5.612,0,0,0,772.516,18.592Zm2.6,9.375a4.723,4.723,0,0,0-2.779-7.541,6.538,6.538,0,0,1,.675-0.8A4.721,4.721,0,0,1,775.112,27.968Z" transform="translate(-713 -15.375)"/>
</svg>
